<svg xmlns="http://www.w3.org/2000/svg" version="1.1" xmlns:xlink="http://www.w3.org/1999/xlink" xmlns:svgjs="http://svgjs.com/svgjs" width="27" height="24"><svg width="27" height="24" viewBox="0 0 27 24" fill="none" xmlns="http://www.w3.org/2000/svg">
<path d="M12.091 0.132428C11.4207 0.314497 10.8579 0.645531 10.3034 1.20001C9.88137 1.61381 9.52551 2.17656 8.15172 4.55174C7.24965 6.12415 6.05793 8.18484 5.50345 9.14484C4.46069 10.9407 2.40827 14.5076 1.15862 16.6759C0.157241 18.4303 0 18.8359 0 19.7793C0 20.9048 0.463448 21.9972 1.27448 22.8C2.11862 23.6276 3.02069 24 4.22069 24C5.42069 24 6.32275 23.6276 7.16689 22.8C8.06068 21.9228 8.49103 20.789 8.42482 19.531C8.37517 18.6621 8.24275 18.3559 7.21655 16.56C6.23172 14.8304 6.10758 14.5324 6.11586 13.7379C6.11586 12.7862 6.45517 11.9917 7.14206 11.3628C8.41655 10.1876 10.4028 10.2455 11.6028 11.4786C11.8676 11.76 12.5876 12.9186 13.9862 15.3517C15.0869 17.2635 16.3614 19.4814 16.8248 20.2759C17.8593 22.08 18.1821 22.56 18.6041 22.9407C19.4648 23.7186 20.3255 24 21.8483 24C23.4869 24 24.2814 23.7186 25.2083 22.8C26.0193 21.9972 26.4827 20.9048 26.4827 19.7793C26.4827 18.8359 26.3255 18.4303 25.3241 16.6759C24.0745 14.5076 22.0221 10.9407 20.9793 9.14484C20.4248 8.18484 19.2331 6.12415 18.331 4.55174C16.5517 1.46484 16.171 0.960014 15.2607 0.480014C14.3917 0.00828999 13.0676 -0.1324 12.091 0.132428Z" fill="black"></path>
</svg><style>@media (prefers-color-scheme: light) { :root { filter: none; } }
@media (prefers-color-scheme: dark) { :root { filter: none; } }
</style></svg>