<?xml version="1.0" standalone="no"?>
<!DOCTYPE svg PUBLIC "-//W3C//DTD SVG 20010904//EN"
 "http://www.w3.org/TR/2001/REC-SVG-20010904/DTD/svg10.dtd">
<svg version="1.0" xmlns="http://www.w3.org/2000/svg"
 width="864.000000pt" height="864.000000pt" viewBox="0 0 864.000000 864.000000"
 preserveAspectRatio="xMidYMid meet">
<metadata>
Created by potrace 1.14, written by Peter Selinger 2001-2017
</metadata>
<g transform="translate(0.000000,864.000000) scale(0.100000,-0.100000)"
fill="#000000" stroke="none">
<path d="M4058 8155 c-2 -3 -24 -7 -49 -10 -192 -23 -430 -126 -577 -249 -148
-123 -233 -220 -342 -386 -62 -95 -80 -122 -80 -126 0 -2 -15 -27 -34 -56 -18
-29 -34 -57 -34 -61 -1 -4 -8 -15 -17 -23 -8 -9 -15 -22 -15 -30 0 -8 -4 -14
-10 -14 -5 0 -10 -4 -10 -9 0 -5 -20 -42 -45 -82 -25 -40 -45 -79 -45 -86 0
-7 -4 -13 -9 -13 -5 0 -16 -15 -25 -32 -9 -18 -21 -40 -26 -48 -12 -19 -94
-160 -126 -217 -13 -23 -62 -108 -109 -188 -47 -81 -85 -149 -85 -151 0 -2
-16 -28 -35 -58 -19 -30 -35 -58 -35 -62 0 -3 -20 -38 -44 -78 -24 -39 -96
-163 -161 -276 -65 -113 -131 -227 -147 -255 -16 -27 -32 -58 -35 -67 -3 -10
-9 -18 -14 -18 -5 0 -9 -5 -9 -10 0 -6 -18 -40 -40 -76 -22 -36 -40 -68 -40
-70 0 -2 -25 -44 -55 -94 -30 -50 -55 -95 -55 -100 0 -6 -4 -10 -8 -10 -4 0
-13 -12 -19 -27 -14 -32 -69 -131 -82 -147 -5 -6 -21 -33 -37 -61 -15 -27 -35
-63 -45 -80 -10 -16 -27 -46 -37 -65 -10 -19 -58 -102 -107 -185 -95 -162 -94
-160 -182 -315 -33 -58 -93 -161 -133 -230 -91 -157 -108 -187 -132 -230 -11
-19 -28 -48 -38 -65 -10 -16 -29 -50 -41 -75 -13 -25 -25 -47 -29 -50 -5 -5
-105 -177 -165 -285 -16 -27 -38 -66 -49 -85 -12 -19 -33 -56 -46 -82 -14 -27
-28 -48 -32 -48 -5 0 -8 -4 -8 -9 0 -5 -23 -49 -51 -98 -29 -48 -63 -108 -77
-133 -14 -25 -49 -86 -78 -137 -30 -50 -54 -96 -54 -102 0 -6 -4 -11 -10 -11
-5 0 -10 -6 -10 -14 0 -7 -8 -24 -19 -37 -10 -13 -22 -35 -26 -49 -4 -14 -11
-27 -15 -30 -26 -17 -167 -338 -191 -434 -33 -135 -33 -444 0 -553 5 -17 7
-34 4 -37 -3 -3 -1 -11 4 -18 6 -7 13 -28 16 -46 20 -103 150 -363 220 -440
11 -12 18 -22 14 -22 -7 0 125 -142 162 -174 13 -12 37 -33 55 -49 119 -104
338 -221 478 -253 73 -17 109 -24 158 -31 72 -10 327 -10 411 -1 79 9 243 50
296 74 115 51 180 85 201 104 12 11 22 18 22 15 0 -27 285 229 328 295 9 14
22 29 29 33 7 4 13 14 13 22 0 7 4 15 8 17 29 11 150 239 178 333 54 182 68
279 68 450 -1 202 -16 289 -74 435 -22 56 -111 241 -120 250 -3 3 -16 25 -28
50 -13 25 -34 63 -46 85 -13 22 -53 94 -91 160 -166 295 -196 349 -247 450
-44 85 -86 182 -93 215 -2 8 -9 31 -15 50 -31 99 -29 339 5 486 21 91 90 262
114 284 4 3 23 30 43 60 77 114 268 280 368 320 14 6 33 15 43 20 16 10 134
56 150 59 4 0 8 1 10 2 17 5 87 18 142 25 82 11 283 5 326 -10 8 -3 25 -7 39
-10 57 -9 253 -87 270 -107 3 -3 24 -16 48 -29 23 -13 42 -27 42 -31 0 -4 8
-10 18 -13 27 -10 104 -85 159 -156 68 -89 327 -503 453 -725 10 -16 31 -54
49 -83 17 -29 31 -57 31 -62 0 -4 4 -10 8 -12 5 -1 22 -28 39 -58 68 -125 86
-156 97 -170 7 -8 18 -28 26 -45 8 -16 26 -48 40 -70 13 -22 30 -49 36 -60 6
-11 24 -42 39 -70 67 -116 75 -132 96 -170 12 -22 35 -59 51 -82 16 -24 26
-43 22 -43 -4 0 0 -8 8 -17 8 -10 28 -43 45 -73 17 -30 72 -127 123 -215 51
-88 100 -173 110 -190 23 -40 159 -276 170 -295 5 -8 31 -53 58 -100 27 -47
74 -128 104 -180 31 -52 71 -122 89 -155 18 -33 37 -61 41 -63 4 -2 8 -8 8
-14 0 -6 20 -44 45 -85 25 -40 45 -78 45 -83 0 -4 4 -10 9 -12 5 -2 22 -26 37
-54 84 -148 201 -311 280 -389 44 -43 125 -115 129 -115 2 0 33 -20 68 -44 68
-49 221 -126 247 -126 9 0 20 -4 25 -9 10 -8 71 -26 125 -37 14 -2 47 -9 74
-14 26 -6 52 -8 56 -5 5 3 11 2 13 -2 8 -12 103 -17 342 -17 256 -1 367 8 498
40 4 1 8 2 10 4 1 1 10 3 19 5 83 16 230 82 328 148 113 76 263 220 343 328
26 35 54 73 62 84 63 82 169 344 194 480 33 172 31 403 -3 533 -8 28 -12 52
-9 52 3 0 1 6 -4 13 -6 6 -16 30 -23 52 -14 45 -132 289 -183 380 -50 88 -88
155 -110 195 -10 19 -61 108 -113 196 -52 89 -94 167 -94 173 0 6 -4 11 -9 11
-5 0 -11 8 -14 18 -6 17 -37 73 -47 82 -3 3 -11 16 -17 30 -14 28 -43 79 -88
155 -46 76 -52 87 -71 125 -10 19 -20 37 -23 40 -4 3 -17 25 -30 50 -13 25
-28 51 -34 58 -15 19 -57 95 -64 115 -3 9 -9 17 -13 17 -4 0 -11 11 -14 24 -3
14 -12 31 -19 38 -14 15 -51 79 -69 121 -7 15 -16 27 -20 27 -4 0 -8 6 -8 14
0 7 -7 19 -15 26 -9 7 -13 15 -11 18 3 2 -7 23 -23 46 -15 22 -30 46 -32 51
-6 16 -123 219 -129 225 -3 3 -12 19 -20 35 -8 17 -27 49 -42 71 -16 23 -28
45 -28 48 0 4 -11 23 -23 44 -13 20 -35 57 -49 82 -14 25 -48 85 -77 134 -28
49 -51 93 -51 97 0 5 -4 9 -10 9 -5 0 -10 4 -10 10 0 5 -14 33 -31 62 -18 29
-40 68 -50 86 -11 17 -27 47 -38 65 -10 17 -30 52 -45 77 -15 25 -29 53 -33
63 -3 9 -9 17 -14 17 -5 0 -9 5 -9 11 0 6 -36 71 -80 146 -44 74 -80 139 -80
143 0 5 -3 10 -7 12 -5 2 -17 21 -29 43 -11 22 -72 128 -134 235 -62 107 -121
210 -131 228 -11 17 -27 47 -38 65 -10 17 -27 48 -37 67 -11 19 -21 37 -24 40
-3 3 -16 25 -29 50 -13 25 -30 52 -37 61 -8 8 -14 18 -14 21 0 6 -98 177 -191
336 -27 45 -49 85 -49 88 0 3 -8 17 -19 32 -17 25 -100 165 -141 238 -10 17
-41 68 -69 112 -28 45 -51 86 -51 92 0 5 -3 10 -7 10 -5 0 -24 27 -43 60 -19
33 -38 60 -42 60 -5 0 -8 7 -8 15 0 8 -4 15 -10 15 -5 0 -10 5 -10 10 0 6 -4
16 -10 23 -5 7 -37 48 -69 92 -56 75 -159 187 -211 229 -105 84 -306 183 -430
211 -3 0 -27 6 -55 13 -27 7 -63 14 -80 16 -16 3 -41 7 -55 11 -28 8 -375 16
-382 10z"/>
</g>
</svg>
