<svg width="23" height="26" viewBox="0 0 23 26" fill="none" xmlns="http://www.w3.org/2000/svg">
<g clip-path="url(#clip0_908_5)">
<g clip-path="url(#clip1_908_5)">
<path d="M17.8899 0H11.273C8.86144 0 6.89836 1.96272 6.89836 4.37382V5.73588H4.77452C2.36298 5.73588 0.399902 7.6986 0.399902 10.1097V20.4563C0.399902 22.8674 2.36298 24.8301 4.77452 24.8301H11.383C13.7945 24.8301 15.7576 22.8674 15.7576 20.4563V19.0858H17.8899C20.3014 19.0858 22.2645 17.123 22.2645 14.7119V4.37382C22.2645 1.96272 20.3014 0 17.8899 0ZM13.8114 20.4563C13.8114 21.7845 12.7199 22.8843 11.383 22.8843H4.77452C3.43759 22.8843 2.34606 21.7845 2.34606 20.4563V10.1097C2.34606 8.78148 3.43759 7.68168 4.77452 7.68168H6.89836V14.7119C6.89836 17.123 8.86144 19.0858 11.273 19.0858H13.8114V20.4563ZM20.3184 14.7119C20.3184 16.0486 19.2268 17.14 17.8899 17.14H11.273C9.94452 17.14 8.84452 16.0486 8.84452 14.7119V4.37382C8.84452 3.03714 9.94452 1.9458 11.273 1.9458H17.8899C19.2268 1.9458 20.3184 3.03714 20.3184 4.37382V14.7119Z" fill="white"/>
</g>
</g>
<defs>
<clipPath id="clip0_908_5">
<rect width="22" height="25.38" fill="white" transform="translate(0.399902)"/>
</clipPath>
<clipPath id="clip1_908_5">
<rect width="22" height="25.38" fill="white" transform="translate(0.399902)"/>
</clipPath>
</defs>
</svg>
