<svg width="988" height="156" viewBox="0 0 988 156" fill="none" xmlns="http://www.w3.org/2000/svg">
<path d="M0.96875 154H-2.03125V157H0.96875V154ZM0.96875 11.2266V8.22656H-2.03125V11.2266H0.96875ZM31.2422 11.2266H34.2422V8.22656H31.2422V11.2266ZM31.2422 154V157H34.2422V154H31.2422ZM3.96875 154V11.2266H-2.03125V154H3.96875ZM0.96875 14.2266H31.2422V8.22656H0.96875V14.2266ZM28.2422 11.2266V154H34.2422V11.2266H28.2422ZM31.2422 151H0.96875V157H31.2422V151ZM118.574 2.04688H121.574V-0.953125H118.574V2.04688ZM118.184 49.6055L115.19 49.4123L115.188 49.4364L115.187 49.4605L118.184 49.6055ZM117.402 58.9805L114.434 58.544L113.929 61.9805H117.402V58.9805ZM118.574 58.9805V61.9805H120.219L121.104 60.5935L118.574 58.9805ZM130.293 47.5547L131.895 50.0912L131.907 50.0837L131.919 50.0761L130.293 47.5547ZM185.469 130.562L188.236 131.721L188.239 131.713L185.469 130.562ZM170.723 149.605L172.393 152.098L172.402 152.092L172.41 152.086L170.723 149.605ZM118.574 141.988L120.917 140.114L120.016 138.988H118.574V141.988ZM116.523 141.988V138.988H114.52L113.752 140.839L116.523 141.988ZM111.543 154V157H113.547L114.314 155.149L111.543 154ZM88.7891 154H85.7891V157H88.7891V154ZM88.7891 2.04688V-0.953125H85.7891V2.04688H88.7891ZM120.82 79.4883L117.974 78.5396L117.968 78.5591L117.962 78.5787L120.82 79.4883ZM118.574 95.7969L115.575 95.7375L115.574 95.7672V95.7969H118.574ZM123.262 123.434L120.635 124.883L120.639 124.889L120.642 124.896L123.262 123.434ZM154.902 123.336L152.38 121.712L152.373 121.723L152.367 121.733L154.902 123.336ZM115.574 2.04688V37.3984H121.574V2.04688H115.574ZM115.574 37.3984C115.574 41.4365 115.446 45.4411 115.19 49.4123L121.177 49.7986C121.442 45.697 121.574 41.5635 121.574 37.3984H115.574ZM115.187 49.4605C114.993 53.4636 114.739 56.4747 114.434 58.544L120.37 59.417C120.717 57.0591 120.983 53.8203 121.18 49.7505L115.187 49.4605ZM117.402 61.9805H118.574V55.9805H117.402V61.9805ZM121.104 60.5935C123.708 56.509 127.283 53.0038 131.895 50.0912L128.691 45.0182C123.407 48.3555 119.169 52.4676 116.045 57.3675L121.104 60.5935ZM131.919 50.0761C136.244 47.2876 142.04 45.7695 149.531 45.7695V39.7695C141.267 39.7695 134.238 41.4416 128.667 45.0333L131.919 50.0761ZM149.531 45.7695C160.858 45.7695 169.922 50.1386 176.969 58.9932L181.664 55.2568C173.477 44.9708 162.684 39.7695 149.531 39.7695V45.7695ZM176.969 58.9932C183.995 67.8212 187.742 81.0725 187.742 99.2148H193.742C193.742 80.378 189.872 65.5695 181.664 55.2568L176.969 58.9932ZM187.742 99.2148C187.742 111.387 186.019 121.418 182.698 129.412L188.239 131.713C191.95 122.78 193.742 111.912 193.742 99.2148H187.742ZM182.701 129.404C179.366 137.371 174.784 143.213 169.035 147.125L172.41 152.086C179.291 147.404 184.54 140.551 188.236 131.721L182.701 129.404ZM169.053 147.113C163.279 150.982 156.548 152.953 148.75 152.953V158.953C157.618 158.953 165.536 156.692 172.393 152.098L169.053 147.113ZM148.75 152.953C141.053 152.953 135.359 151.569 131.385 149.106L128.224 154.206C133.495 157.473 140.431 158.953 148.75 158.953V152.953ZM131.385 149.106C127.001 146.389 123.532 143.383 120.917 140.114L116.232 143.862C119.345 147.755 123.364 151.194 128.224 154.206L131.385 149.106ZM118.574 138.988H116.523V144.988H118.574V138.988ZM113.752 140.839L108.772 152.851L114.314 155.149L119.295 143.137L113.752 140.839ZM111.543 151H88.7891V157H111.543V151ZM91.7891 154V2.04688H85.7891V154H91.7891ZM88.7891 5.04688H118.574V-0.953125H88.7891V5.04688ZM139.961 63.5977C134.371 63.5977 129.563 64.7474 125.835 67.3651L129.282 72.2756C131.674 70.5963 135.134 69.5977 139.961 69.5977V63.5977ZM125.835 67.3651C122.146 69.9552 119.566 73.7652 117.974 78.5396L123.666 80.437C124.939 76.6176 126.852 73.9823 129.282 72.2756L125.835 67.3651ZM117.962 78.5787C116.477 83.2452 115.708 88.9928 115.575 95.7375L121.574 95.8563C121.7 89.4499 122.43 84.3251 123.679 80.3979L117.962 78.5787ZM115.574 95.7969V99.0195H121.574V95.7969H115.574ZM115.574 99.0195C115.574 109.85 117.156 118.577 120.635 124.883L125.888 121.984C123.118 116.962 121.574 109.413 121.574 99.0195H115.574ZM120.642 124.896C124.454 131.725 131.361 134.832 140.352 134.832V128.832C132.806 128.832 128.32 126.34 125.881 121.971L120.642 124.896ZM140.352 134.832C147.612 134.832 153.37 131.374 157.438 124.939L152.367 121.733C149.273 126.626 145.331 128.832 140.352 128.832V134.832ZM157.425 124.96C161.515 118.605 163.371 109.769 163.371 98.8242H157.371C157.371 109.234 155.581 116.739 152.38 121.712L157.425 124.96ZM163.371 98.8242C163.371 87.8949 161.521 79.1494 157.389 73.0252L152.415 76.381C155.575 81.0642 157.371 88.3993 157.371 98.8242H163.371ZM157.389 73.0252C153.207 66.8269 147.311 63.5977 139.961 63.5977V69.5977C145.241 69.5977 149.306 71.7721 152.415 76.381L157.389 73.0252ZM301.547 44.8203H304.547V41.8203H301.547V44.8203ZM301.547 154V157H304.547V154H301.547ZM278.695 154L275.812 154.827L276.435 157H278.695V154ZM274.691 140.035L277.575 139.208L276.952 137.035H274.691V140.035ZM273.129 140.035V137.035H271.475L270.592 138.433L273.129 140.035ZM252.719 154.293L251.96 151.391L252.719 154.293ZM219.125 151.852L217.82 154.553L217.832 154.559L217.845 154.565L219.125 151.852ZM205.551 138.863L202.916 140.298L202.922 140.309L202.928 140.32L205.551 138.863ZM200.766 44.8203V41.8203H197.766V44.8203H200.766ZM230.551 44.8203H233.551V41.8203H230.551V44.8203ZM234.75 126.266L237.202 124.537L234.75 126.266ZM262.387 128.121L264.25 130.472L264.263 130.462L264.277 130.451L262.387 128.121ZM269.613 115.914L266.713 115.145L266.71 115.158L266.707 115.17L269.613 115.914ZM271.762 44.8203V41.8203H268.762V44.8203H271.762ZM298.547 44.8203V154H304.547V44.8203H298.547ZM301.547 151H278.695V157H301.547V151ZM281.579 153.173L277.575 139.208L271.808 140.862L275.812 154.827L281.579 153.173ZM274.691 137.035H273.129V143.035H274.691V137.035ZM270.592 138.433C268.465 141.802 265.827 144.52 262.676 146.621L266.004 151.613C269.884 149.027 273.106 145.69 275.665 141.637L270.592 138.433ZM262.676 146.621C259.447 148.774 255.881 150.365 251.96 151.391L253.478 157.195C258.02 156.007 262.202 154.148 266.004 151.613L262.676 146.621ZM251.96 151.391C247.986 152.43 243.847 152.953 239.535 152.953V158.953C244.338 158.953 248.988 158.37 253.478 157.195L251.96 151.391ZM239.535 152.953C232.07 152.953 225.721 151.647 220.405 149.138L217.845 154.565C224.117 157.525 231.375 158.953 239.535 158.953V152.953ZM220.43 149.15C215.217 146.632 211.141 142.749 208.173 137.406L202.928 140.32C206.471 146.696 211.445 151.473 217.82 154.553L220.43 149.15ZM208.186 137.429C205.313 132.152 203.766 125.077 203.766 116.012H197.766C197.766 125.696 199.409 133.856 202.916 140.298L208.186 137.429ZM203.766 116.012V44.8203H197.766V116.012H203.766ZM200.766 47.8203H230.551V41.8203H200.766V47.8203ZM227.551 44.8203V108.59H233.551V44.8203H227.551ZM227.551 108.59C227.551 116.676 228.984 123.294 232.298 127.994L237.202 124.537C234.917 121.295 233.551 116.129 233.551 108.59H227.551ZM232.298 127.994C235.805 132.969 241.317 135.223 248.129 135.223V129.223C242.701 129.223 239.294 127.505 237.202 124.537L232.298 127.994ZM248.129 135.223C254.609 135.223 260.101 133.76 264.25 130.472L260.523 125.77C257.771 127.951 253.758 129.223 248.129 129.223V135.223ZM264.277 130.451C268.337 127.157 271.032 122.468 272.519 116.658L266.707 115.17C265.461 120.037 263.337 123.487 260.497 125.791L264.277 130.451ZM272.513 116.683C274.032 110.953 274.762 104.103 274.762 96.1875H268.762C268.762 103.767 268.059 110.068 266.713 115.145L272.513 116.683ZM274.762 96.1875V44.8203H268.762V96.1875H274.762ZM271.762 47.8203H301.547V41.8203H271.762V47.8203ZM348.582 44.8203H351.582V41.8203H348.582V44.8203ZM348.582 154V157H351.582V154H348.582ZM318.797 154H315.797V157H318.797V154ZM318.797 44.8203V41.8203H315.797V44.8203H318.797ZM345.164 5.17188L343.524 7.68369L343.542 7.69553L343.56 7.70711L345.164 5.17188ZM345.164 28.1211L346.804 30.6329L346.822 30.6213L346.84 30.6094L345.164 28.1211ZM322.215 28.1211L320.515 30.5932L320.545 30.6134L320.574 30.6329L322.215 28.1211ZM322.215 5.17188L323.842 7.69199L323.849 7.68786L323.855 7.68369L322.215 5.17188ZM345.582 44.8203V154H351.582V44.8203H345.582ZM348.582 151H318.797V157H348.582V151ZM321.797 154V44.8203H315.797V154H321.797ZM318.797 47.8203H348.582V41.8203H318.797V47.8203ZM333.738 5.04688C337.679 5.04688 340.896 5.96786 343.524 7.68369L346.804 2.66006C343.052 0.209226 338.651 -0.953125 333.738 -0.953125V5.04688ZM343.56 7.70711C345.51 8.94057 346.949 11.4935 346.949 16.5977H352.949C352.949 10.5039 351.199 5.43963 346.768 2.63664L343.56 7.70711ZM346.949 16.5977C346.949 21.6041 345.524 24.2615 343.488 25.6328L346.84 30.6094C351.184 27.6838 352.949 22.6589 352.949 16.5977H346.949ZM343.524 25.6093C340.896 27.3251 337.679 28.2461 333.738 28.2461V34.2461C338.651 34.2461 343.052 33.0837 346.804 30.6329L343.524 25.6093ZM333.738 28.2461C329.722 28.2461 326.476 27.3206 323.855 25.6093L320.574 30.6329C324.334 33.0883 328.77 34.2461 333.738 34.2461V28.2461ZM323.914 25.649C321.934 24.2872 320.527 21.6266 320.527 16.5977H314.527C314.527 22.6364 316.246 27.6581 320.515 30.5932L323.914 25.649ZM320.527 16.5977C320.527 11.4702 321.949 8.91504 323.842 7.69199L320.587 2.65176C316.231 5.46517 314.527 10.5272 314.527 16.5977H320.527ZM323.855 7.68369C326.476 5.97239 329.722 5.04688 333.738 5.04688V-0.953125C328.77 -0.953125 324.334 0.20469 320.574 2.66006L323.855 7.68369ZM395.715 154V157H398.715V154H395.715ZM365.93 154H362.93V157H365.93V154ZM365.93 2.04688V-0.953125H362.93V2.04688H365.93ZM395.715 2.04688H398.715V-0.953125H395.715V2.04688ZM395.715 151H365.93V157H395.715V151ZM368.93 154V2.04688H362.93V154H368.93ZM365.93 5.04688H395.715V-0.953125H365.93V5.04688ZM392.715 2.04688V154H398.715V2.04688H392.715ZM417.848 141.695L415.5 143.564L415.507 143.572L415.514 143.581L417.848 141.695ZM418.043 57.2227L420.375 59.1103L420.381 59.1025L418.043 57.2227ZM472.438 50.6797L470.507 52.9758L470.519 52.9864L470.532 52.997L472.438 50.6797ZM479.859 58.7852L477.372 60.4617L478.263 61.7852H479.859V58.7852ZM480.836 58.7852V61.7852H484.451L483.785 58.2323L480.836 58.7852ZM479.371 49.6055L476.395 49.9834L476.398 50.0099L476.402 50.0364L479.371 49.6055ZM478.59 2.04688V-0.953125H475.59V2.04688H478.59ZM508.473 2.04688H511.473V-0.953125H508.473V2.04688ZM508.473 154V157H511.473V154H508.473ZM485.621 154L482.842 155.131L483.603 157H485.621V154ZM479.859 139.84L482.638 138.709L481.878 136.84H479.859V139.84ZM478.59 139.84V136.84H476.935L476.052 138.24L478.59 139.84ZM471.461 148.043L473.418 150.317L473.422 150.313L471.461 148.043ZM475.27 124.996L472.804 123.287L472.799 123.294L475.27 124.996ZM480.641 103.023L483.64 103.083L483.641 103.053V103.023H480.641ZM475.758 75.4844L473.157 76.9792L473.161 76.9857L473.164 76.9922L475.758 75.4844ZM442.164 124.117L439.691 125.816L439.698 125.826L439.705 125.836L442.164 124.117ZM447.633 152.953C436.369 152.953 427.296 148.613 420.181 139.81L415.514 143.581C423.764 153.788 434.548 158.953 447.633 158.953V152.953ZM420.195 139.827C413.169 130.999 409.422 117.748 409.422 99.6055H403.422C403.422 118.442 407.292 133.251 415.5 143.564L420.195 139.827ZM409.422 99.6055C409.422 81.2681 413.234 67.9317 420.375 59.1103L415.711 55.3351C407.358 65.6543 403.422 80.573 403.422 99.6055H409.422ZM420.381 59.1025C427.552 50.1844 436.811 45.7695 448.414 45.7695V39.7695C435.017 39.7695 424.029 44.9901 415.705 55.3428L420.381 59.1025ZM448.414 45.7695C453.354 45.7695 457.587 46.4493 461.166 47.74L463.201 42.0959C458.837 40.522 453.891 39.7695 448.414 39.7695V45.7695ZM461.166 47.74C464.846 49.0675 467.945 50.8219 470.507 52.9758L474.368 48.3836C471.2 45.7197 467.463 43.633 463.201 42.0959L461.166 47.74ZM470.532 52.997C473.249 55.2308 475.523 57.7194 477.372 60.4617L482.347 57.1086C480.159 53.8614 477.485 50.9463 474.343 48.3624L470.532 52.997ZM479.859 61.7852H480.836V55.7852H479.859V61.7852ZM483.785 58.2323C483.406 56.211 482.924 53.2 482.34 49.1745L476.402 50.0364C476.99 54.0838 477.485 57.1926 477.887 59.338L483.785 58.2323ZM482.347 49.2276C481.843 45.2561 481.59 41.1833 481.59 37.0078H475.59C475.59 41.4261 475.858 45.7517 476.395 49.9834L482.347 49.2276ZM481.59 37.0078V2.04688H475.59V37.0078H481.59ZM478.59 5.04688H508.473V-0.953125H478.59V5.04688ZM505.473 2.04688V154H511.473V2.04688H505.473ZM508.473 151H485.621V157H508.473V151ZM488.4 152.869L482.638 138.709L477.081 140.971L482.842 155.131L488.4 152.869ZM479.859 136.84H478.59V142.84H479.859V136.84ZM476.052 138.24C474.333 140.967 472.156 143.479 469.5 145.772L473.422 150.313C476.495 147.659 479.071 144.702 481.128 141.44L476.052 138.24ZM469.504 145.769C467.01 147.915 463.98 149.664 460.37 150.988L462.435 156.621C466.637 155.081 470.313 152.988 473.418 150.317L469.504 145.769ZM460.37 150.988C456.869 152.271 452.644 152.953 447.633 152.953V158.953C453.169 158.953 458.123 158.202 462.435 156.621L460.37 150.988ZM458.082 135.223C466.789 135.223 473.658 132.621 477.74 126.699L472.799 123.294C470.24 127.007 465.652 129.223 458.082 129.223V135.223ZM477.735 126.705C481.61 121.116 483.44 113.096 483.64 103.083L477.641 102.963C477.451 112.482 475.7 119.11 472.804 123.287L477.735 126.705ZM483.641 103.023V99.8008H477.641V103.023H483.641ZM483.641 99.8008C483.641 88.9614 481.992 80.2384 478.351 73.9765L473.164 76.9922C476.034 81.9283 477.641 89.4162 477.641 99.8008H483.641ZM478.359 73.9895C474.383 67.0721 467.09 63.9883 457.594 63.9883V69.9883C465.806 69.9883 470.622 72.5685 473.157 76.9792L478.359 73.9895ZM457.594 63.9883C449.971 63.9883 443.9 67.3605 439.655 73.8403L444.673 77.1285C447.85 72.2801 452.066 69.9883 457.594 69.9883V63.9883ZM439.655 73.8403C435.488 80.1996 433.598 89.0442 433.598 99.9961H439.598C439.598 89.5938 441.418 82.0972 444.673 77.1285L439.655 73.8403ZM433.598 99.9961C433.598 110.932 435.482 119.687 439.691 125.816L444.637 122.419C441.424 117.74 439.598 110.414 439.598 99.9961H433.598ZM439.705 125.836C444.066 132.077 450.309 135.223 458.082 135.223V129.223C452.183 129.223 447.814 126.965 444.623 122.399L439.705 125.836ZM634.477 140.426L632 138.733L631.995 138.74L634.477 140.426ZM618.949 152.047L620.008 154.854L620.02 154.849L620.031 154.845L618.949 152.047ZM573.539 154.488L573.006 157.44L573.012 157.442L573.539 154.488ZM557.133 149.605H554.133V151.615L555.991 152.38L557.133 149.605ZM557.133 124.996L558.365 122.261L554.133 120.354V124.996H557.133ZM576.176 131.637L575.422 134.54L575.438 134.545L575.455 134.549L576.176 131.637ZM606.547 131.637L608.241 134.113L608.248 134.108L608.255 134.103L606.547 131.637ZM608.793 119.918L606.28 121.557L606.322 121.621L606.367 121.682L608.793 119.918ZM602.348 114.938L600.865 117.545L600.884 117.556L600.904 117.567L602.348 114.938ZM586.723 107.613L587.889 104.849L587.882 104.846L586.723 107.613ZM569.828 98.9219L568.155 101.412L568.164 101.418L568.173 101.424L569.828 98.9219ZM560.062 88.5703L557.397 89.9462L557.41 89.9721L557.424 89.9978L560.062 88.5703ZM568.656 50.4844L570.291 52.9997L570.296 52.9964L568.656 50.4844ZM619.535 44.8203L618.881 47.7481L618.888 47.7496L619.535 44.8203ZM638.578 51.3633L641.346 52.5207L642.463 49.8483L639.832 48.6378L638.578 51.3633ZM629.594 72.8477L628.4 75.5999L631.189 76.8095L632.361 74.0051L629.594 72.8477ZM614.262 67.0859L613.36 69.9473L613.371 69.9508L614.262 67.0859ZM588.188 76.6562L585.856 78.5438L585.882 78.5766L585.91 78.6086L588.188 76.6562ZM594.828 81.2461L593.444 83.9077L593.476 83.9242L593.508 83.9399L594.828 81.2461ZM609.379 87.5938L610.518 84.8185L610.513 84.8162L609.379 87.5938ZM625.492 95.6016L623.922 98.1578L623.935 98.166L623.949 98.174L625.492 95.6016ZM636.039 105.855L633.47 107.405L633.476 107.414L633.481 107.423L636.039 105.855ZM636.75 121.578C636.75 128.514 635.114 134.178 632 138.733L636.953 142.119C640.871 136.388 642.75 129.486 642.75 121.578H636.75ZM631.995 138.74C628.952 143.218 624.318 146.754 617.867 149.249L620.031 154.845C627.382 152.002 633.1 147.79 636.958 142.112L631.995 138.74ZM617.89 149.24C611.432 151.677 603.225 152.953 593.168 152.953V158.953C603.684 158.953 612.664 157.625 620.008 154.854L617.89 149.24ZM593.168 152.953C585.668 152.953 579.311 152.471 574.066 151.535L573.012 157.442C578.705 158.458 585.434 158.953 593.168 158.953V152.953ZM574.073 151.536C568.895 150.6 563.63 149.037 558.275 146.831L555.991 152.38C561.703 154.732 567.376 156.423 573.006 157.44L574.073 151.536ZM560.133 149.605V124.996H554.133V149.605H560.133ZM555.9 127.731C561.991 130.475 568.499 132.743 575.422 134.54L576.93 128.733C570.31 127.015 564.124 124.856 558.365 122.261L555.9 127.731ZM575.455 134.549C582.446 136.28 588.688 137.176 594.145 137.176V131.176C589.315 131.176 583.577 130.379 576.897 128.725L575.455 134.549ZM594.145 137.176C600.068 137.176 604.983 136.342 608.241 134.113L604.853 129.161C603.163 130.317 599.809 131.176 594.145 131.176V137.176ZM608.255 134.103C611.505 131.853 613.355 128.698 613.355 124.801H607.355C607.355 126.503 606.667 127.905 604.839 129.17L608.255 134.103ZM613.355 124.801C613.355 122.364 612.645 120.114 611.219 118.153L606.367 121.682C607.024 122.586 607.355 123.592 607.355 124.801H613.355ZM611.306 118.279C609.894 116.115 607.163 114.159 603.791 112.308L600.904 117.567C604.173 119.362 605.739 120.726 606.28 121.557L611.306 118.279ZM603.831 112.33C600.35 110.351 595.008 107.854 587.889 104.849L585.556 110.377C592.63 113.362 597.704 115.748 600.865 117.545L603.831 112.33ZM587.882 104.846C581.157 102.028 575.706 99.2144 571.484 96.4201L568.173 101.424C572.804 104.489 578.616 107.469 585.563 110.38L587.882 104.846ZM571.501 96.4315C567.476 93.7282 564.583 90.6219 562.701 87.1429L557.424 89.9978C559.839 94.4615 563.456 98.2562 568.155 101.412L571.501 96.4315ZM562.728 87.1944C560.929 83.7089 559.938 79.1091 559.938 73.2383H553.938C553.938 79.7373 555.029 85.3589 557.397 89.9462L562.728 87.1944ZM559.938 73.2383C559.938 64.0622 563.411 57.4719 570.291 52.9997L567.021 47.969C558.277 53.6531 553.938 62.232 553.938 73.2383H559.938ZM570.296 52.9964C577.528 48.2748 587.408 45.7695 600.199 45.7695V39.7695C586.689 39.7695 575.54 42.4075 567.016 47.9724L570.296 52.9964ZM600.199 45.7695C606.767 45.7695 612.992 46.4326 618.881 47.7481L620.189 41.8925C613.838 40.4737 607.173 39.7695 600.199 39.7695V45.7695ZM618.888 47.7496C624.839 49.0651 630.983 51.1719 637.324 54.0888L639.832 48.6378C633.152 45.5651 626.601 43.3099 620.183 41.891L618.888 47.7496ZM635.81 50.2059L626.826 71.6902L632.361 74.0051L641.346 52.5207L635.81 50.2059ZM630.788 70.0954C625.301 67.7156 620.088 65.7553 615.152 64.2211L613.371 69.9508C618.071 71.4113 623.079 73.2922 628.4 75.5999L630.788 70.0954ZM615.163 64.2246C610.121 62.636 604.967 61.8398 599.711 61.8398V67.8398C604.351 67.8398 608.897 68.5411 613.36 69.9473L615.163 64.2246ZM599.711 61.8398C595.173 61.8398 591.301 62.4337 588.444 63.9463L591.251 69.249C592.821 68.4179 595.525 67.8398 599.711 67.8398V61.8398ZM588.444 63.9463C586.956 64.7341 585.689 65.8136 584.806 67.2419C583.919 68.6764 583.527 70.2893 583.527 71.9688H589.527C589.527 71.2393 589.689 70.7526 589.909 70.3968C590.133 70.0347 590.526 69.633 591.251 69.249L588.444 63.9463ZM583.527 71.9688C583.527 74.4142 584.317 76.643 585.856 78.5438L590.519 74.7687C589.845 73.9352 589.527 73.0389 589.527 71.9688H583.527ZM585.91 78.6086C587.477 80.4366 590.128 82.1832 593.444 83.9077L596.212 78.5844C593.018 76.9235 591.242 75.6103 590.465 74.7039L585.91 78.6086ZM593.508 83.9399C596.921 85.6129 601.846 87.7593 608.245 90.3713L610.513 84.8162C604.152 82.2199 599.376 80.1345 596.149 78.5523L593.508 83.9399ZM608.24 90.369C614.31 92.8612 619.531 95.4606 623.922 98.1578L627.062 93.0453C622.339 90.1436 616.817 87.4044 610.518 84.8185L608.24 90.369ZM623.949 98.174C628.133 100.684 631.276 103.767 633.47 107.405L638.608 104.306C635.854 99.7404 631.966 95.9875 627.036 93.0291L623.949 98.174ZM633.481 107.423C635.58 110.847 636.75 115.493 636.75 121.578H642.75C642.75 114.772 641.446 108.937 638.597 104.288L633.481 107.423ZM704.461 131.246L703.849 128.309L703.837 128.312L704.461 131.246ZM713.738 128.805H716.738V124.698L712.826 125.947L713.738 128.805ZM713.738 150.973L714.967 153.709L716.738 152.914V150.973H713.738ZM701.824 154.488L701.259 151.542L701.236 151.546L701.212 151.551L701.824 154.488ZM668.816 152.828L667.66 155.596L667.681 155.605L667.702 155.614L668.816 152.828ZM656.609 141.793L653.987 143.25L653.998 143.269L654.009 143.288L656.609 141.793ZM652.215 67.1836H655.215V64.1836H652.215V67.1836ZM637.957 67.1836H634.957V70.1836H637.957V67.1836ZM637.957 54.5859L636.4 52.0216L634.957 52.8977V54.5859H637.957ZM654.363 44.625L655.92 47.1894L656.81 46.6489L657.174 45.6731L654.363 44.625ZM662.957 21.5781V18.5781H660.874L660.146 20.53L662.957 21.5781ZM682 21.5781H685V18.5781H682V21.5781ZM682 44.8203H679V47.8203H682V44.8203ZM712.566 44.8203H715.566V41.8203H712.566V44.8203ZM712.566 67.1836V70.1836H715.566V67.1836H712.566ZM682 67.1836V64.1836H679V67.1836H682ZM685.516 129.195L683.523 131.438L683.555 131.467L683.589 131.495L685.516 129.195ZM694.988 135.223C698.445 135.223 701.812 134.877 705.085 134.18L703.837 128.312C700.99 128.917 698.042 129.223 694.988 129.223V135.223ZM705.073 134.183C708.3 133.511 711.492 132.671 714.65 131.663L712.826 125.947C709.864 126.892 706.872 127.679 703.849 128.309L705.073 134.183ZM710.738 128.805V150.973H716.738V128.805H710.738ZM712.51 148.236C709.595 149.544 705.864 150.659 701.259 151.542L702.389 157.435C707.29 156.495 711.501 155.266 714.967 153.709L712.51 148.236ZM701.212 151.551C696.757 152.48 691.822 152.953 686.395 152.953V158.953C692.165 158.953 697.517 158.45 702.436 157.425L701.212 151.551ZM686.395 152.953C680.205 152.953 674.732 151.963 669.931 150.043L667.702 155.614C673.317 157.859 679.563 158.953 686.395 158.953V152.953ZM669.973 150.06C665.486 148.186 661.904 144.982 659.21 140.298L654.009 143.288C657.305 149.021 661.86 153.174 667.66 155.596L669.973 150.06ZM659.232 140.336C656.65 135.689 655.215 128.943 655.215 119.82H649.215C649.215 129.448 650.709 137.35 653.987 143.25L659.232 140.336ZM655.215 119.82V67.1836H649.215V119.82H655.215ZM652.215 64.1836H637.957V70.1836H652.215V64.1836ZM640.957 67.1836V54.5859H634.957V67.1836H640.957ZM639.514 57.1503L655.92 47.1894L652.806 42.0606L636.4 52.0216L639.514 57.1503ZM657.174 45.6731L665.768 22.6263L660.146 20.53L651.552 43.5769L657.174 45.6731ZM662.957 24.5781H682V18.5781H662.957V24.5781ZM679 21.5781V44.8203H685V21.5781H679ZM682 47.8203H712.566V41.8203H682V47.8203ZM709.566 44.8203V67.1836H715.566V44.8203H709.566ZM712.566 64.1836H682V70.1836H712.566V64.1836ZM679 67.1836V119.82H685V67.1836H679ZM679 119.82C679 124.547 680.346 128.614 683.523 131.438L687.509 126.953C685.998 125.61 685 123.427 685 119.82H679ZM683.589 131.495C686.659 134.067 690.554 135.223 694.988 135.223V129.223C691.61 129.223 689.19 128.36 687.442 126.896L683.589 131.495ZM822.102 44.8203H825.102V41.8203H822.102V44.8203ZM822.102 154V157H825.102V154H822.102ZM799.25 154L796.366 154.827L796.989 157H799.25V154ZM795.246 140.035L798.13 139.208L797.507 137.035H795.246V140.035ZM793.684 140.035V137.035H792.03L791.147 138.433L793.684 140.035ZM773.273 154.293L772.514 151.391L773.273 154.293ZM739.68 151.852L738.375 154.553L738.387 154.559L738.399 154.565L739.68 151.852ZM726.105 138.863L723.471 140.298L723.477 140.309L723.483 140.32L726.105 138.863ZM721.32 44.8203V41.8203H718.32V44.8203H721.32ZM751.105 44.8203H754.105V41.8203H751.105V44.8203ZM755.305 126.266L757.757 124.537L755.305 126.266ZM782.941 128.121L784.805 130.472L784.818 130.462L784.832 130.451L782.941 128.121ZM790.168 115.914L787.268 115.145L787.265 115.158L787.262 115.17L790.168 115.914ZM792.316 44.8203V41.8203H789.316V44.8203H792.316ZM819.102 44.8203V154H825.102V44.8203H819.102ZM822.102 151H799.25V157H822.102V151ZM802.134 153.173L798.13 139.208L792.362 140.862L796.366 154.827L802.134 153.173ZM795.246 137.035H793.684V143.035H795.246V137.035ZM791.147 138.433C789.019 141.802 786.382 144.52 783.23 146.621L786.559 151.613C790.438 149.027 793.66 145.69 796.22 141.637L791.147 138.433ZM783.23 146.621C780.002 148.774 776.435 150.365 772.514 151.391L774.033 157.195C778.575 156.007 782.756 154.148 786.559 151.613L783.23 146.621ZM772.514 151.391C768.541 152.43 764.402 152.953 760.09 152.953V158.953C764.893 158.953 769.543 158.37 774.033 157.195L772.514 151.391ZM760.09 152.953C752.625 152.953 746.276 151.647 740.96 149.138L738.399 154.565C744.672 157.525 751.93 158.953 760.09 158.953V152.953ZM740.985 149.15C735.772 146.632 731.696 142.749 728.728 137.406L723.483 140.32C727.025 146.696 731.999 151.473 738.375 154.553L740.985 149.15ZM728.74 137.429C725.867 132.152 724.32 125.077 724.32 116.012H718.32C718.32 125.696 719.963 133.856 723.471 140.298L728.74 137.429ZM724.32 116.012V44.8203H718.32V116.012H724.32ZM721.32 47.8203H751.105V41.8203H721.32V47.8203ZM748.105 44.8203V108.59H754.105V44.8203H748.105ZM748.105 108.59C748.105 116.676 749.539 123.294 752.853 127.994L757.757 124.537C755.471 121.295 754.105 116.129 754.105 108.59H748.105ZM752.853 127.994C756.36 132.969 761.872 135.223 768.684 135.223V129.223C763.256 129.223 759.849 127.505 757.757 124.537L752.853 127.994ZM768.684 135.223C775.164 135.223 780.656 133.76 784.805 130.472L781.078 125.77C778.326 127.951 774.313 129.223 768.684 129.223V135.223ZM784.832 130.451C788.892 127.157 791.586 122.468 793.074 116.658L787.262 115.17C786.015 120.037 783.892 123.487 781.051 125.791L784.832 130.451ZM793.068 116.683C794.587 110.953 795.316 104.103 795.316 96.1875H789.316C789.316 103.767 788.614 110.068 787.268 115.145L793.068 116.683ZM795.316 96.1875V44.8203H789.316V96.1875H795.316ZM792.316 47.8203H822.102V41.8203H792.316V47.8203ZM899.703 67.1836V70.1836H902.703V67.1836H899.703ZM873.922 67.1836V64.1836H870.922V67.1836H873.922ZM873.922 154V157H876.922V154H873.922ZM844.137 154H841.137V157H844.137V154ZM844.137 67.1836H847.137V64.1836H844.137V67.1836ZM827.73 67.1836H824.73V70.1836H827.73V67.1836ZM827.73 52.8281L826.415 50.1321L824.73 50.9541V52.8281H827.73ZM844.137 44.8203L845.453 47.5163L847.137 46.6943V44.8203H844.137ZM848.824 15.1328L846.266 13.5659L846.26 13.575L848.824 15.1328ZM862.203 4.19531L863.228 7.01469L863.237 7.01146L863.246 7.00818L862.203 4.19531ZM898.531 2.4375L897.927 5.3761L897.947 5.38008L897.966 5.38381L898.531 2.4375ZM910.152 5.5625L912.985 6.54904L913.935 3.8213L911.246 2.76877L910.152 5.5625ZM902.535 27.4375L901.636 30.2995L904.411 31.1719L905.368 28.424L902.535 27.4375ZM876.754 28.4141L874.376 26.5849L874.369 26.594L876.754 28.4141ZM873.922 44.8203H870.922V47.8203H873.922V44.8203ZM899.703 44.8203H902.703V41.8203H899.703V44.8203ZM977.145 67.1836V70.1836H980.145V67.1836H977.145ZM951.363 67.1836V64.1836H948.363V67.1836H951.363ZM951.363 154V157H954.363V154H951.363ZM921.578 154H918.578V157H921.578V154ZM921.578 67.1836H924.578V64.1836H921.578V67.1836ZM905.172 67.1836H902.172V70.1836H905.172V67.1836ZM905.172 52.8281L903.856 50.1321L902.172 50.9541V52.8281H905.172ZM921.578 44.8203L922.894 47.5163L924.578 46.6943V44.8203H921.578ZM926.266 15.1328L923.707 13.5659L923.702 13.575L926.266 15.1328ZM939.645 4.19531L940.67 7.01469L940.679 7.01146L940.688 7.00818L939.645 4.19531ZM975.973 2.4375L975.369 5.3761L975.388 5.38008L975.408 5.38381L975.973 2.4375ZM987.594 5.5625L990.427 6.54904L991.377 3.8213L988.687 2.76877L987.594 5.5625ZM979.977 27.4375L979.077 30.2995L981.853 31.1719L982.81 28.424L979.977 27.4375ZM954.195 28.4141L951.817 26.5849L951.81 26.594L954.195 28.4141ZM951.363 44.8203H948.363V47.8203H951.363V44.8203ZM977.145 44.8203H980.145V41.8203H977.145V44.8203ZM899.703 64.1836H873.922V70.1836H899.703V64.1836ZM870.922 67.1836V154H876.922V67.1836H870.922ZM873.922 151H844.137V157H873.922V151ZM847.137 154V67.1836H841.137V154H847.137ZM844.137 64.1836H827.73V70.1836H844.137V64.1836ZM830.73 67.1836V52.8281H824.73V67.1836H830.73ZM829.046 55.5241L845.453 47.5163L842.821 42.1243L826.415 50.1321L829.046 55.5241ZM847.137 44.8203V36.8125H841.137V44.8203H847.137ZM847.137 36.8125C847.137 27.776 848.664 21.1741 851.388 16.6906L846.26 13.575C842.735 19.378 841.137 27.2293 841.137 36.8125H847.137ZM851.382 16.6997C854.219 12.0691 858.138 8.86555 863.228 7.01469L861.178 1.37593C854.809 3.69174 849.81 7.77982 846.266 13.5659L851.382 16.6997ZM863.246 7.00818C868.629 5.01227 875.096 3.97266 882.711 3.97266V-2.02734C874.571 -2.02734 867.366 -0.91852 861.16 1.38245L863.246 7.00818ZM882.711 3.97266C888.34 3.97266 893.407 4.44733 897.927 5.3761L899.135 -0.501105C894.15 -1.52545 888.67 -2.02734 882.711 -2.02734V3.97266ZM897.966 5.38381C902.619 6.27612 906.298 7.27567 909.059 8.35623L911.246 2.76877C908.017 1.50558 903.949 0.421799 899.096 -0.508807L897.966 5.38381ZM907.319 4.57596L899.702 26.451L905.368 28.424L912.985 6.54904L907.319 4.57596ZM903.435 24.5755C901.061 23.8294 898.5 23.1564 895.757 22.5541L894.47 28.4146C897.065 28.9842 899.452 29.6133 901.636 30.2995L903.435 24.5755ZM895.757 22.5541C892.829 21.9116 889.547 21.6055 885.934 21.6055V27.6055C889.221 27.6055 892.059 27.8853 894.47 28.4146L895.757 22.5541ZM885.934 21.6055C881.141 21.6055 877.06 23.0955 874.376 26.5849L879.132 30.2432C880.354 28.6545 882.393 27.6055 885.934 27.6055V21.6055ZM874.369 26.594C871.99 29.7119 870.922 33.5909 870.922 37.9844H876.922C876.922 34.5653 877.742 32.0642 879.139 30.2341L874.369 26.594ZM870.922 37.9844V44.8203H876.922V37.9844H870.922ZM873.922 47.8203H899.703V41.8203H873.922V47.8203ZM896.703 44.8203V67.1836H902.703V44.8203H896.703ZM977.145 64.1836H951.363V70.1836H977.145V64.1836ZM948.363 67.1836V154H954.363V67.1836H948.363ZM951.363 151H921.578V157H951.363V151ZM924.578 154V67.1836H918.578V154H924.578ZM921.578 64.1836H905.172V70.1836H921.578V64.1836ZM908.172 67.1836V52.8281H902.172V67.1836H908.172ZM906.488 55.5241L922.894 47.5163L920.262 42.1243L903.856 50.1321L906.488 55.5241ZM924.578 44.8203V36.8125H918.578V44.8203H924.578ZM924.578 36.8125C924.578 27.776 926.105 21.1741 928.829 16.6906L923.702 13.575C920.176 19.378 918.578 27.2293 918.578 36.8125H924.578ZM928.824 16.6997C931.66 12.0691 935.58 8.86555 940.67 7.01469L938.619 1.37593C932.251 3.69174 927.251 7.77982 923.707 13.5659L928.824 16.6997ZM940.688 7.00818C946.07 5.01227 952.537 3.97266 960.152 3.97266V-2.02734C952.012 -2.02734 944.807 -0.91852 938.602 1.38245L940.688 7.00818ZM960.152 3.97266C965.782 3.97266 970.849 4.44733 975.369 5.3761L976.576 -0.501105C971.591 -1.52545 966.112 -2.02734 960.152 -2.02734V3.97266ZM975.408 5.38381C980.06 6.27612 983.739 7.27567 986.501 8.35623L988.687 2.76877C985.459 1.50558 981.39 0.421799 976.538 -0.508807L975.408 5.38381ZM984.761 4.57596L977.143 26.451L982.81 28.424L990.427 6.54904L984.761 4.57596ZM980.876 24.5755C978.502 23.8294 975.942 23.1564 973.198 22.5541L971.911 28.4146C974.506 28.9842 976.894 29.6133 979.077 30.2995L980.876 24.5755ZM973.198 22.5541C970.271 21.9116 966.988 21.6055 963.375 21.6055V27.6055C966.663 27.6055 969.5 27.8853 971.911 28.4146L973.198 22.5541ZM963.375 21.6055C958.582 21.6055 954.502 23.0955 951.817 26.5849L956.573 30.2432C957.795 28.6545 959.835 27.6055 963.375 27.6055V21.6055ZM951.81 26.594C949.431 29.7119 948.363 33.5909 948.363 37.9844H954.363C954.363 34.5653 955.184 32.0642 956.58 30.2341L951.81 26.594ZM948.363 37.9844V44.8203H954.363V37.9844H948.363ZM951.363 47.8203H977.145V41.8203H951.363V47.8203ZM974.145 44.8203V67.1836H980.145V44.8203H974.145Z" fill="white"/>
</svg>
