<svg width="574" height="517" viewBox="0 0 574 517" fill="none" xmlns="http://www.w3.org/2000/svg">
<path d="M17.9688 214H14.9688V217H17.9688V214ZM17.9688 71.2266V68.2266H14.9688V71.2266H17.9688ZM48.2422 71.2266H51.2422V68.2266H48.2422V71.2266ZM48.2422 214V217H51.2422V214H48.2422ZM20.9688 214V71.2266H14.9688V214H20.9688ZM17.9688 74.2266H48.2422V68.2266H17.9688V74.2266ZM45.2422 71.2266V214H51.2422V71.2266H45.2422ZM48.2422 211H17.9688V217H48.2422V211ZM135.574 62.0469H138.574V59.0469H135.574V62.0469ZM135.184 109.605L132.19 109.412L132.188 109.436L132.187 109.46L135.184 109.605ZM134.402 118.98L131.434 118.544L130.929 121.98H134.402V118.98ZM135.574 118.98V121.98H137.219L138.104 120.593L135.574 118.98ZM147.293 107.555L148.895 110.091L148.907 110.084L148.919 110.076L147.293 107.555ZM202.469 190.562L205.236 191.721L205.239 191.713L202.469 190.562ZM187.723 209.605L189.393 212.098L189.402 212.092L189.41 212.086L187.723 209.605ZM135.574 201.988L137.917 200.114L137.016 198.988H135.574V201.988ZM133.523 201.988V198.988H131.52L130.752 200.839L133.523 201.988ZM128.543 214V217H130.547L131.314 215.149L128.543 214ZM105.789 214H102.789V217H105.789V214ZM105.789 62.0469V59.0469H102.789V62.0469H105.789ZM137.82 139.488L134.974 138.54L134.968 138.559L134.962 138.579L137.82 139.488ZM135.574 155.797L132.575 155.737L132.574 155.767V155.797H135.574ZM140.262 183.434L137.635 184.883L137.639 184.889L137.642 184.896L140.262 183.434ZM171.902 183.336L169.38 181.712L169.373 181.723L169.367 181.733L171.902 183.336ZM132.574 62.0469V97.3984H138.574V62.0469H132.574ZM132.574 97.3984C132.574 101.436 132.446 105.441 132.19 109.412L138.177 109.799C138.442 105.697 138.574 101.564 138.574 97.3984H132.574ZM132.187 109.46C131.993 113.464 131.739 116.475 131.434 118.544L137.37 119.417C137.717 117.059 137.983 113.82 138.18 109.75L132.187 109.46ZM134.402 121.98H135.574V115.98H134.402V121.98ZM138.104 120.593C140.708 116.509 144.283 113.004 148.895 110.091L145.691 105.018C140.407 108.356 136.169 112.468 133.045 117.367L138.104 120.593ZM148.919 110.076C153.244 107.288 159.04 105.77 166.531 105.77V99.7695C158.267 99.7695 151.238 101.442 145.667 105.033L148.919 110.076ZM166.531 105.77C177.858 105.77 186.922 110.139 193.969 118.993L198.664 115.257C190.477 104.971 179.684 99.7695 166.531 99.7695V105.77ZM193.969 118.993C200.995 127.821 204.742 141.073 204.742 159.215H210.742C210.742 140.378 206.872 125.569 198.664 115.257L193.969 118.993ZM204.742 159.215C204.742 171.387 203.019 181.418 199.698 189.412L205.239 191.713C208.95 182.78 210.742 171.912 210.742 159.215H204.742ZM199.701 189.404C196.366 197.371 191.784 203.213 186.035 207.125L189.41 212.086C196.291 207.404 201.54 200.551 205.236 191.721L199.701 189.404ZM186.053 207.113C180.279 210.982 173.548 212.953 165.75 212.953V218.953C174.618 218.953 182.536 216.692 189.393 212.098L186.053 207.113ZM165.75 212.953C158.053 212.953 152.359 211.569 148.385 209.106L145.224 214.206C150.495 217.473 157.431 218.953 165.75 218.953V212.953ZM148.385 209.106C144.001 206.389 140.532 203.383 137.917 200.114L133.232 203.862C136.345 207.755 140.364 211.194 145.224 214.206L148.385 209.106ZM135.574 198.988H133.523V204.988H135.574V198.988ZM130.752 200.839L125.772 212.851L131.314 215.149L136.295 203.137L130.752 200.839ZM128.543 211H105.789V217H128.543V211ZM108.789 214V62.0469H102.789V214H108.789ZM105.789 65.0469H135.574V59.0469H105.789V65.0469ZM156.961 123.598C151.371 123.598 146.563 124.747 142.835 127.365L146.282 132.276C148.674 130.596 152.134 129.598 156.961 129.598V123.598ZM142.835 127.365C139.146 129.955 136.566 133.765 134.974 138.54L140.666 140.437C141.939 136.618 143.852 133.982 146.282 132.276L142.835 127.365ZM134.962 138.579C133.477 143.245 132.708 148.993 132.575 155.737L138.574 155.856C138.7 149.45 139.43 144.325 140.679 140.398L134.962 138.579ZM132.574 155.797V159.02H138.574V155.797H132.574ZM132.574 159.02C132.574 169.85 134.156 178.577 137.635 184.883L142.888 181.984C140.118 176.962 138.574 169.413 138.574 159.02H132.574ZM137.642 184.896C141.454 191.725 148.361 194.832 157.352 194.832V188.832C149.806 188.832 145.32 186.34 142.881 181.971L137.642 184.896ZM157.352 194.832C164.612 194.832 170.37 191.374 174.438 184.939L169.367 181.733C166.273 186.626 162.331 188.832 157.352 188.832V194.832ZM174.425 184.96C178.515 178.605 180.371 169.769 180.371 158.824H174.371C174.371 169.234 172.581 176.739 169.38 181.712L174.425 184.96ZM180.371 158.824C180.371 147.895 178.521 139.149 174.389 133.025L169.415 136.381C172.575 141.064 174.371 148.399 174.371 158.824H180.371ZM174.389 133.025C170.207 126.827 164.311 123.598 156.961 123.598V129.598C162.241 129.598 166.306 131.772 169.415 136.381L174.389 133.025ZM318.547 104.82H321.547V101.82H318.547V104.82ZM318.547 214V217H321.547V214H318.547ZM295.695 214L292.812 214.827L293.435 217H295.695V214ZM291.691 200.035L294.575 199.208L293.952 197.035H291.691V200.035ZM290.129 200.035V197.035H288.475L287.592 198.433L290.129 200.035ZM269.719 214.293L268.96 211.391L269.719 214.293ZM236.125 211.852L234.82 214.553L234.832 214.559L234.845 214.565L236.125 211.852ZM222.551 198.863L219.916 200.298L219.922 200.309L219.928 200.32L222.551 198.863ZM217.766 104.82V101.82H214.766V104.82H217.766ZM247.551 104.82H250.551V101.82H247.551V104.82ZM251.75 186.266L254.202 184.537L251.75 186.266ZM279.387 188.121L281.25 190.472L281.263 190.462L281.277 190.451L279.387 188.121ZM286.613 175.914L283.713 175.145L283.71 175.158L283.707 175.17L286.613 175.914ZM288.762 104.82V101.82H285.762V104.82H288.762ZM315.547 104.82V214H321.547V104.82H315.547ZM318.547 211H295.695V217H318.547V211ZM298.579 213.173L294.575 199.208L288.808 200.862L292.812 214.827L298.579 213.173ZM291.691 197.035H290.129V203.035H291.691V197.035ZM287.592 198.433C285.465 201.802 282.827 204.52 279.676 206.621L283.004 211.613C286.884 209.027 290.106 205.69 292.665 201.637L287.592 198.433ZM279.676 206.621C276.447 208.774 272.881 210.365 268.96 211.391L270.478 217.195C275.02 216.007 279.202 214.148 283.004 211.613L279.676 206.621ZM268.96 211.391C264.986 212.43 260.847 212.953 256.535 212.953V218.953C261.338 218.953 265.988 218.37 270.478 217.195L268.96 211.391ZM256.535 212.953C249.07 212.953 242.721 211.647 237.405 209.138L234.845 214.565C241.117 217.525 248.375 218.953 256.535 218.953V212.953ZM237.43 209.15C232.217 206.632 228.141 202.749 225.173 197.406L219.928 200.32C223.471 206.696 228.445 211.473 234.82 214.553L237.43 209.15ZM225.186 197.429C222.313 192.152 220.766 185.077 220.766 176.012H214.766C214.766 185.696 216.409 193.856 219.916 200.298L225.186 197.429ZM220.766 176.012V104.82H214.766V176.012H220.766ZM217.766 107.82H247.551V101.82H217.766V107.82ZM244.551 104.82V168.59H250.551V104.82H244.551ZM244.551 168.59C244.551 176.676 245.984 183.294 249.298 187.994L254.202 184.537C251.917 181.295 250.551 176.129 250.551 168.59H244.551ZM249.298 187.994C252.805 192.969 258.317 195.223 265.129 195.223V189.223C259.701 189.223 256.294 187.505 254.202 184.537L249.298 187.994ZM265.129 195.223C271.609 195.223 277.101 193.76 281.25 190.472L277.523 185.77C274.771 187.951 270.758 189.223 265.129 189.223V195.223ZM281.277 190.451C285.337 187.157 288.032 182.468 289.519 176.658L283.707 175.17C282.461 180.037 280.337 183.487 277.497 185.791L281.277 190.451ZM289.513 176.683C291.032 170.953 291.762 164.103 291.762 156.188H285.762C285.762 163.767 285.059 170.068 283.713 175.145L289.513 176.683ZM291.762 156.188V104.82H285.762V156.188H291.762ZM288.762 107.82H318.547V101.82H288.762V107.82ZM365.582 104.82H368.582V101.82H365.582V104.82ZM365.582 214V217H368.582V214H365.582ZM335.797 214H332.797V217H335.797V214ZM335.797 104.82V101.82H332.797V104.82H335.797ZM362.164 65.1719L360.524 67.6837L360.542 67.6955L360.56 67.7071L362.164 65.1719ZM362.164 88.1211L363.804 90.6329L363.822 90.6213L363.84 90.6094L362.164 88.1211ZM339.215 88.1211L337.515 90.5932L337.545 90.6134L337.574 90.6329L339.215 88.1211ZM339.215 65.1719L340.842 67.692L340.849 67.6879L340.855 67.6837L339.215 65.1719ZM362.582 104.82V214H368.582V104.82H362.582ZM365.582 211H335.797V217H365.582V211ZM338.797 214V104.82H332.797V214H338.797ZM335.797 107.82H365.582V101.82H335.797V107.82ZM350.738 65.0469C354.679 65.0469 357.896 65.9679 360.524 67.6837L363.804 62.6601C360.052 60.2092 355.651 59.0469 350.738 59.0469V65.0469ZM360.56 67.7071C362.51 68.9406 363.949 71.4935 363.949 76.5977H369.949C369.949 70.5039 368.199 65.4396 363.768 62.6366L360.56 67.7071ZM363.949 76.5977C363.949 81.6041 362.524 84.2615 360.488 85.6328L363.84 90.6094C368.184 87.6838 369.949 82.6589 369.949 76.5977H363.949ZM360.524 85.6093C357.896 87.3251 354.679 88.2461 350.738 88.2461V94.2461C355.651 94.2461 360.052 93.0837 363.804 90.6329L360.524 85.6093ZM350.738 88.2461C346.722 88.2461 343.476 87.3206 340.855 85.6093L337.574 90.6329C341.334 93.0883 345.77 94.2461 350.738 94.2461V88.2461ZM340.914 85.649C338.934 84.2872 337.527 81.6266 337.527 76.5977H331.527C331.527 82.6364 333.246 87.6581 337.515 90.5932L340.914 85.649ZM337.527 76.5977C337.527 71.4702 338.949 68.915 340.842 67.692L337.587 62.6518C333.231 65.4652 331.527 70.5272 331.527 76.5977H337.527ZM340.855 67.6837C343.476 65.9724 346.722 65.0469 350.738 65.0469V59.0469C345.77 59.0469 341.334 60.2047 337.574 62.6601L340.855 67.6837ZM412.715 214V217H415.715V214H412.715ZM382.93 214H379.93V217H382.93V214ZM382.93 62.0469V59.0469H379.93V62.0469H382.93ZM412.715 62.0469H415.715V59.0469H412.715V62.0469ZM412.715 211H382.93V217H412.715V211ZM385.93 214V62.0469H379.93V214H385.93ZM382.93 65.0469H412.715V59.0469H382.93V65.0469ZM409.715 62.0469V214H415.715V62.0469H409.715ZM434.848 201.695L432.5 203.564L432.507 203.572L432.514 203.581L434.848 201.695ZM435.043 117.223L437.375 119.11L437.381 119.103L435.043 117.223ZM489.438 110.68L487.507 112.976L487.519 112.986L487.532 112.997L489.438 110.68ZM496.859 118.785L494.372 120.462L495.263 121.785H496.859V118.785ZM497.836 118.785V121.785H501.451L500.785 118.232L497.836 118.785ZM496.371 109.605L493.395 109.983L493.398 110.01L493.402 110.036L496.371 109.605ZM495.59 62.0469V59.0469H492.59V62.0469H495.59ZM525.473 62.0469H528.473V59.0469H525.473V62.0469ZM525.473 214V217H528.473V214H525.473ZM502.621 214L499.842 215.131L500.603 217H502.621V214ZM496.859 199.84L499.638 198.709L498.878 196.84H496.859V199.84ZM495.59 199.84V196.84H493.935L493.052 198.24L495.59 199.84ZM488.461 208.043L490.418 210.317L490.422 210.313L488.461 208.043ZM492.27 184.996L489.804 183.287L489.799 183.294L492.27 184.996ZM497.641 163.023L500.64 163.083L500.641 163.053V163.023H497.641ZM492.758 135.484L490.157 136.979L490.161 136.986L490.164 136.992L492.758 135.484ZM459.164 184.117L456.691 185.816L456.698 185.826L456.705 185.836L459.164 184.117ZM464.633 212.953C453.369 212.953 444.296 208.613 437.181 199.81L432.514 203.581C440.764 213.788 451.548 218.953 464.633 218.953V212.953ZM437.195 199.827C430.169 190.999 426.422 177.748 426.422 159.605H420.422C420.422 178.442 424.292 193.251 432.5 203.564L437.195 199.827ZM426.422 159.605C426.422 141.268 430.234 127.932 437.375 119.11L432.711 115.335C424.358 125.654 420.422 140.573 420.422 159.605H426.422ZM437.381 119.103C444.552 110.184 453.811 105.77 465.414 105.77V99.7695C452.017 99.7695 441.029 104.99 432.705 115.343L437.381 119.103ZM465.414 105.77C470.354 105.77 474.587 106.449 478.166 107.74L480.201 102.096C475.837 100.522 470.891 99.7695 465.414 99.7695V105.77ZM478.166 107.74C481.846 109.067 484.945 110.822 487.507 112.976L491.368 108.384C488.2 105.72 484.463 103.633 480.201 102.096L478.166 107.74ZM487.532 112.997C490.249 115.231 492.523 117.719 494.372 120.462L499.347 117.109C497.159 113.861 494.485 110.946 491.343 108.362L487.532 112.997ZM496.859 121.785H497.836V115.785H496.859V121.785ZM500.785 118.232C500.406 116.211 499.924 113.2 499.34 109.175L493.402 110.036C493.99 114.084 494.485 117.193 494.887 119.338L500.785 118.232ZM499.347 109.228C498.843 105.256 498.59 101.183 498.59 97.0078H492.59C492.59 101.426 492.858 105.752 493.395 109.983L499.347 109.228ZM498.59 97.0078V62.0469H492.59V97.0078H498.59ZM495.59 65.0469H525.473V59.0469H495.59V65.0469ZM522.473 62.0469V214H528.473V62.0469H522.473ZM525.473 211H502.621V217H525.473V211ZM505.4 212.869L499.638 198.709L494.081 200.971L499.842 215.131L505.4 212.869ZM496.859 196.84H495.59V202.84H496.859V196.84ZM493.052 198.24C491.333 200.967 489.156 203.479 486.5 205.772L490.422 210.313C493.495 207.659 496.071 204.702 498.128 201.44L493.052 198.24ZM486.504 205.769C484.01 207.915 480.98 209.664 477.37 210.988L479.435 216.621C483.637 215.081 487.313 212.988 490.418 210.317L486.504 205.769ZM477.37 210.988C473.869 212.271 469.644 212.953 464.633 212.953V218.953C470.169 218.953 475.123 218.202 479.435 216.621L477.37 210.988ZM475.082 195.223C483.789 195.223 490.658 192.621 494.74 186.699L489.799 183.294C487.24 187.007 482.652 189.223 475.082 189.223V195.223ZM494.735 186.705C498.61 181.116 500.44 173.096 500.64 163.083L494.641 162.963C494.451 172.482 492.7 179.11 489.804 183.287L494.735 186.705ZM500.641 163.023V159.801H494.641V163.023H500.641ZM500.641 159.801C500.641 148.961 498.992 140.238 495.351 133.977L490.164 136.992C493.034 141.928 494.641 149.416 494.641 159.801H500.641ZM495.359 133.99C491.383 127.072 484.09 123.988 474.594 123.988V129.988C482.806 129.988 487.622 132.569 490.157 136.979L495.359 133.99ZM474.594 123.988C466.971 123.988 460.9 127.36 456.655 133.84L461.673 137.128C464.85 132.28 469.066 129.988 474.594 129.988V123.988ZM456.655 133.84C452.488 140.2 450.598 149.044 450.598 159.996H456.598C456.598 149.594 458.418 142.097 461.673 137.128L456.655 133.84ZM450.598 159.996C450.598 170.932 452.482 179.687 456.691 185.816L461.637 182.419C458.424 177.74 456.598 170.414 456.598 159.996H450.598ZM456.705 185.836C461.066 192.077 467.309 195.223 475.082 195.223V189.223C469.183 189.223 464.814 186.965 461.623 182.399L456.705 185.836Z" fill="white"/>
<path d="M86.5234 386.426L84.0467 384.733L84.0421 384.74L86.5234 386.426ZM70.9961 398.047L72.0553 400.854L72.0668 400.849L72.0783 400.845L70.9961 398.047ZM25.5859 400.488L25.0524 403.44L25.0586 403.442L25.5859 400.488ZM9.17969 395.605H6.17969V397.615L8.03744 398.38L9.17969 395.605ZM9.17969 370.996L10.412 368.261L6.17969 366.354V370.996H9.17969ZM28.2227 377.637L27.4688 380.54L27.4852 380.545L27.5016 380.549L28.2227 377.637ZM58.5938 377.637L60.2878 380.113L60.2946 380.108L60.3014 380.103L58.5938 377.637ZM60.8398 365.918L58.327 367.557L58.3687 367.621L58.4136 367.682L60.8398 365.918ZM54.3945 360.938L52.9116 363.545L52.9311 363.556L52.9508 363.567L54.3945 360.938ZM38.7695 353.613L39.936 350.849L39.929 350.846L38.7695 353.613ZM21.875 344.922L20.2023 347.412L20.2108 347.418L20.2194 347.424L21.875 344.922ZM12.1094 334.57L9.44351 335.946L9.45688 335.972L9.47074 335.998L12.1094 334.57ZM20.7031 296.484L22.3381 299L22.3432 298.996L20.7031 296.484ZM71.582 290.82L70.9279 293.748L70.9345 293.75L71.582 290.82ZM90.625 297.363L93.3927 298.521L94.5103 295.848L91.8787 294.638L90.625 297.363ZM81.6406 318.848L80.4469 321.6L83.2356 322.809L84.4084 320.005L81.6406 318.848ZM66.3086 313.086L65.4071 315.947L65.4182 315.951L66.3086 313.086ZM40.2344 322.656L37.9026 324.544L37.9292 324.577L37.9566 324.609L40.2344 322.656ZM46.875 327.246L45.4909 329.908L45.5225 329.924L45.5545 329.94L46.875 327.246ZM61.4258 333.594L62.5651 330.819L62.5595 330.816L61.4258 333.594ZM77.5391 341.602L75.9688 344.158L75.9821 344.166L75.9956 344.174L77.5391 341.602ZM88.0859 351.855L85.5171 353.405L85.5226 353.414L85.5281 353.423L88.0859 351.855ZM88.7969 367.578C88.7969 374.514 87.1605 380.178 84.0467 384.733L89.0001 388.119C92.9176 382.388 94.7969 375.486 94.7969 367.578H88.7969ZM84.0421 384.74C80.9993 389.218 76.3651 392.754 69.9139 395.249L72.0783 400.845C79.4292 398.002 85.1465 393.79 89.0048 388.112L84.0421 384.74ZM69.9369 395.24C63.4793 397.677 55.2717 398.953 45.2148 398.953V404.953C55.7309 404.953 64.7108 403.625 72.0553 400.854L69.9369 395.24ZM45.2148 398.953C37.7144 398.953 31.3575 398.471 26.1133 397.535L25.0586 403.442C30.7519 404.458 37.4809 404.953 45.2148 404.953V398.953ZM26.1195 397.536C20.9422 396.6 15.6771 395.037 10.3219 392.831L8.03744 398.38C13.75 400.732 19.4224 402.423 25.0524 403.44L26.1195 397.536ZM12.1797 395.605V370.996H6.17969V395.605H12.1797ZM7.94734 373.731C14.0375 376.475 20.5464 378.743 27.4688 380.54L28.9765 374.733C22.3573 373.015 16.1708 370.856 10.412 368.261L7.94734 373.731ZM27.5016 380.549C34.4933 382.28 40.7345 383.176 46.1914 383.176V377.176C41.3618 377.176 35.6239 376.379 28.9437 374.725L27.5016 380.549ZM46.1914 383.176C52.1152 383.176 57.0301 382.342 60.2878 380.113L56.8997 375.161C55.2094 376.317 51.8562 377.176 46.1914 377.176V383.176ZM60.3014 380.103C63.5521 377.853 65.4023 374.698 65.4023 370.801H59.4023C59.4023 372.503 58.7135 373.905 56.8861 375.17L60.3014 380.103ZM65.4023 370.801C65.4023 368.364 64.6922 366.114 63.2661 364.153L58.4136 367.682C59.0709 368.586 59.4023 369.592 59.4023 370.801H65.4023ZM63.3527 364.279C61.9412 362.115 59.2097 360.159 55.8383 358.308L52.9508 363.567C56.22 365.362 57.7854 366.726 58.327 367.557L63.3527 364.279ZM55.8774 358.33C52.3973 356.351 47.0552 353.854 39.936 350.849L37.6031 356.377C44.6766 359.362 49.7511 361.748 52.9116 363.545L55.8774 358.33ZM39.929 350.846C33.2039 348.028 27.7531 345.214 23.5306 342.42L20.2194 347.424C24.851 350.489 30.6633 353.469 37.6101 356.38L39.929 350.846ZM23.5477 342.431C19.5228 339.728 16.6301 336.622 14.748 333.143L9.47074 335.998C11.8855 340.461 15.5033 344.256 20.2023 347.412L23.5477 342.431ZM14.7752 333.194C12.9763 329.709 11.9844 325.109 11.9844 319.238H5.98438C5.98438 325.737 7.07583 331.359 9.44351 335.946L14.7752 333.194ZM11.9844 319.238C11.9844 310.062 15.4578 303.472 22.3381 299L19.0682 293.969C10.3234 299.653 5.98438 308.232 5.98438 319.238H11.9844ZM22.3432 298.996C29.575 294.275 39.4547 291.77 52.2461 291.77V285.77C38.7354 285.77 27.5864 288.408 19.0631 293.972L22.3432 298.996ZM52.2461 291.77C58.8143 291.77 65.0392 292.433 70.9279 293.748L72.2361 287.892C65.8853 286.474 59.2196 285.77 52.2461 285.77V291.77ZM70.9345 293.75C76.8855 295.065 83.0302 297.172 89.3713 300.089L91.8787 294.638C85.199 291.565 78.6484 289.31 72.2296 287.891L70.9345 293.75ZM87.8573 296.206L78.8729 317.69L84.4084 320.005L93.3927 298.521L87.8573 296.206ZM82.8344 316.095C77.3476 313.716 72.1351 311.755 67.199 310.221L65.4182 315.951C70.1175 317.411 75.1263 319.292 80.4469 321.6L82.8344 316.095ZM67.2101 310.225C62.1679 308.636 57.0137 307.84 51.7578 307.84V313.84C56.3977 313.84 60.9441 314.541 65.4071 315.947L67.2101 310.225ZM51.7578 307.84C47.2201 307.84 43.348 308.434 40.4909 309.946L43.2982 315.249C44.8681 314.418 47.5715 313.84 51.7578 313.84V307.84ZM40.4909 309.946C39.0027 310.734 37.7354 311.814 36.8525 313.242C35.9657 314.676 35.5742 316.289 35.5742 317.969H41.5742C41.5742 317.239 41.7361 316.753 41.9561 316.397C42.1799 316.035 42.5728 315.633 43.2982 315.249L40.4909 309.946ZM35.5742 317.969C35.5742 320.414 36.3638 322.643 37.9026 324.544L42.5661 320.769C41.8914 319.935 41.5742 319.039 41.5742 317.969H35.5742ZM37.9566 324.609C39.5235 326.437 42.1746 328.183 45.4909 329.908L48.2591 324.584C45.065 322.924 43.289 321.61 42.5121 320.704L37.9566 324.609ZM45.5545 329.94C48.9675 331.613 53.8926 333.759 60.2921 336.371L62.5595 330.816C56.1986 328.22 51.4231 326.134 48.1955 324.552L45.5545 329.94ZM60.2865 336.369C66.3573 338.861 71.578 341.461 75.9688 344.158L79.1093 339.045C74.3855 336.144 68.8641 333.404 62.5651 330.819L60.2865 336.369ZM75.9956 344.174C80.1795 346.684 83.323 349.767 85.5171 353.405L90.6548 350.306C87.901 345.74 84.0132 341.987 79.0825 339.029L75.9956 344.174ZM85.5281 353.423C87.6264 356.847 88.7969 361.493 88.7969 367.578H94.7969C94.7969 360.772 93.4934 354.937 90.6437 350.288L85.5281 353.423ZM156.508 377.246L155.896 374.309L155.883 374.312L156.508 377.246ZM165.785 374.805H168.785V370.698L164.873 371.947L165.785 374.805ZM165.785 396.973L167.014 399.709L168.785 398.914V396.973H165.785ZM153.871 400.488L153.306 397.542L153.283 397.546L153.259 397.551L153.871 400.488ZM120.863 398.828L119.707 401.596L119.728 401.605L119.749 401.614L120.863 398.828ZM108.656 387.793L106.034 389.25L106.045 389.269L106.056 389.288L108.656 387.793ZM104.262 313.184H107.262V310.184H104.262V313.184ZM90.0039 313.184H87.0039V316.184H90.0039V313.184ZM90.0039 300.586L88.447 298.022L87.0039 298.898V300.586H90.0039ZM106.41 290.625L107.967 293.189L108.857 292.649L109.221 291.673L106.41 290.625ZM115.004 267.578V264.578H112.921L112.193 266.53L115.004 267.578ZM134.047 267.578H137.047V264.578H134.047V267.578ZM134.047 290.82H131.047V293.82H134.047V290.82ZM164.613 290.82H167.613V287.82H164.613V290.82ZM164.613 313.184V316.184H167.613V313.184H164.613ZM134.047 313.184V310.184H131.047V313.184H134.047ZM137.562 375.195L135.569 377.438L135.602 377.467L135.636 377.495L137.562 375.195ZM147.035 381.223C150.492 381.223 153.859 380.877 157.132 380.18L155.883 374.312C153.037 374.917 150.089 375.223 147.035 375.223V381.223ZM157.12 380.183C160.347 379.511 163.539 378.671 166.697 377.663L164.873 371.947C161.911 372.892 158.919 373.679 155.896 374.309L157.12 380.183ZM162.785 374.805V396.973H168.785V374.805H162.785ZM164.556 394.236C161.642 395.544 157.91 396.659 153.306 397.542L154.436 403.435C159.337 402.495 163.548 401.266 167.014 399.709L164.556 394.236ZM153.259 397.551C148.803 398.48 143.868 398.953 138.441 398.953V404.953C144.212 404.953 149.564 404.45 154.483 403.425L153.259 397.551ZM138.441 398.953C132.252 398.953 126.779 397.963 121.977 396.043L119.749 401.614C125.364 403.859 131.61 404.953 138.441 404.953V398.953ZM122.02 396.06C117.533 394.186 113.95 390.982 111.257 386.298L106.056 389.288C109.352 395.021 113.907 399.174 119.707 401.596L122.02 396.06ZM111.279 386.336C108.697 381.689 107.262 374.943 107.262 365.82H101.262C101.262 375.448 102.756 383.35 106.034 389.25L111.279 386.336ZM107.262 365.82V313.184H101.262V365.82H107.262ZM104.262 310.184H90.0039V316.184H104.262V310.184ZM93.0039 313.184V300.586H87.0039V313.184H93.0039ZM91.5608 303.15L107.967 293.189L104.853 288.061L88.447 298.022L91.5608 303.15ZM109.221 291.673L117.815 268.626L112.193 266.53L103.599 289.577L109.221 291.673ZM115.004 270.578H134.047V264.578H115.004V270.578ZM131.047 267.578V290.82H137.047V267.578H131.047ZM134.047 293.82H164.613V287.82H134.047V293.82ZM161.613 290.82V313.184H167.613V290.82H161.613ZM164.613 310.184H134.047V316.184H164.613V310.184ZM131.047 313.184V365.82H137.047V313.184H131.047ZM131.047 365.82C131.047 370.547 132.392 374.614 135.569 377.438L139.556 372.953C138.045 371.61 137.047 369.427 137.047 365.82H131.047ZM135.636 377.495C138.706 380.067 142.601 381.223 147.035 381.223V375.223C143.657 375.223 141.237 374.36 139.489 372.896L135.636 377.495ZM274.148 290.82H277.148V287.82H274.148V290.82ZM274.148 400V403H277.148V400H274.148ZM251.297 400L248.413 400.827L249.036 403H251.297V400ZM247.293 386.035L250.177 385.208L249.554 383.035H247.293V386.035ZM245.73 386.035V383.035H244.077L243.194 384.433L245.73 386.035ZM225.32 400.293L224.561 397.391L225.32 400.293ZM191.727 397.852L190.421 400.553L190.434 400.559L190.446 400.565L191.727 397.852ZM178.152 384.863L175.518 386.298L175.524 386.309L175.53 386.32L178.152 384.863ZM173.367 290.82V287.82H170.367V290.82H173.367ZM203.152 290.82H206.152V287.82H203.152V290.82ZM207.352 372.266L209.804 370.537L207.352 372.266ZM234.988 374.121L236.852 376.472L236.865 376.462L236.878 376.451L234.988 374.121ZM242.215 361.914L239.315 361.145L239.312 361.158L239.309 361.17L242.215 361.914ZM244.363 290.82V287.82H241.363V290.82H244.363ZM271.148 290.82V400H277.148V290.82H271.148ZM274.148 397H251.297V403H274.148V397ZM254.181 399.173L250.177 385.208L244.409 386.862L248.413 400.827L254.181 399.173ZM247.293 383.035H245.73V389.035H247.293V383.035ZM243.194 384.433C241.066 387.802 238.429 390.52 235.277 392.621L238.606 397.613C242.485 395.027 245.707 391.69 248.267 387.637L243.194 384.433ZM235.277 392.621C232.048 394.774 228.482 396.365 224.561 397.391L226.079 403.195C230.622 402.007 234.803 400.148 238.606 397.613L235.277 392.621ZM224.561 397.391C220.587 398.43 216.449 398.953 212.137 398.953V404.953C216.939 404.953 221.59 404.37 226.079 403.195L224.561 397.391ZM212.137 398.953C204.672 398.953 198.323 397.647 193.007 395.138L190.446 400.565C196.719 403.525 203.977 404.953 212.137 404.953V398.953ZM193.032 395.15C187.818 392.632 183.743 388.749 180.775 383.406L175.53 386.32C179.072 392.696 184.046 397.473 190.421 400.553L193.032 395.15ZM180.787 383.429C177.914 378.152 176.367 371.077 176.367 362.012H170.367C170.367 371.696 172.01 379.856 175.518 386.298L180.787 383.429ZM176.367 362.012V290.82H170.367V362.012H176.367ZM173.367 293.82H203.152V287.82H173.367V293.82ZM200.152 290.82V354.59H206.152V290.82H200.152ZM200.152 354.59C200.152 362.676 201.586 369.294 204.9 373.994L209.804 370.537C207.518 367.295 206.152 362.129 206.152 354.59H200.152ZM204.9 373.994C208.407 378.969 213.918 381.223 220.73 381.223V375.223C215.303 375.223 211.896 373.505 209.804 370.537L204.9 373.994ZM220.73 381.223C227.211 381.223 232.703 379.76 236.852 376.472L233.125 371.77C230.373 373.951 226.36 375.223 220.73 375.223V381.223ZM236.878 376.451C240.939 373.157 243.633 368.468 245.121 362.658L239.309 361.17C238.062 366.037 235.939 369.487 233.098 371.791L236.878 376.451ZM245.115 362.683C246.633 356.953 247.363 350.103 247.363 342.188H241.363C241.363 349.767 240.661 356.068 239.315 361.145L245.115 362.683ZM247.363 342.188V290.82H241.363V342.188H247.363ZM244.363 293.82H274.148V287.82H244.363V293.82ZM351.75 313.184V316.184H354.75V313.184H351.75ZM325.969 313.184V310.184H322.969V313.184H325.969ZM325.969 400V403H328.969V400H325.969ZM296.184 400H293.184V403H296.184V400ZM296.184 313.184H299.184V310.184H296.184V313.184ZM279.777 313.184H276.777V316.184H279.777V313.184ZM279.777 298.828L278.461 296.132L276.777 296.954V298.828H279.777ZM296.184 290.82L297.499 293.516L299.184 292.694V290.82H296.184ZM300.871 261.133L298.313 259.566L298.307 259.575L300.871 261.133ZM314.25 250.195L315.275 253.015L315.284 253.011L315.293 253.008L314.25 250.195ZM350.578 248.438L349.974 251.376L349.994 251.38L350.013 251.384L350.578 248.438ZM362.199 251.562L365.032 252.549L365.982 249.821L363.292 248.769L362.199 251.562ZM354.582 273.438L353.683 276.299L356.458 277.172L357.415 274.424L354.582 273.438ZM328.801 274.414L326.423 272.585L326.416 272.594L328.801 274.414ZM325.969 290.82H322.969V293.82H325.969V290.82ZM351.75 290.82H354.75V287.82H351.75V290.82ZM429.191 313.184V316.184H432.191V313.184H429.191ZM403.41 313.184V310.184H400.41V313.184H403.41ZM403.41 400V403H406.41V400H403.41ZM373.625 400H370.625V403H373.625V400ZM373.625 313.184H376.625V310.184H373.625V313.184ZM357.219 313.184H354.219V316.184H357.219V313.184ZM357.219 298.828L355.903 296.132L354.219 296.954V298.828H357.219ZM373.625 290.82L374.941 293.516L376.625 292.694V290.82H373.625ZM378.312 261.133L375.754 259.566L375.749 259.575L378.312 261.133ZM391.691 250.195L392.717 253.015L392.726 253.011L392.734 253.008L391.691 250.195ZM428.02 248.438L427.416 251.376L427.435 251.38L427.454 251.384L428.02 248.438ZM439.641 251.562L442.474 252.549L443.424 249.821L440.734 248.769L439.641 251.562ZM432.023 273.438L431.124 276.299L433.9 277.172L434.857 274.424L432.023 273.438ZM406.242 274.414L403.864 272.585L403.857 272.594L406.242 274.414ZM403.41 290.82H400.41V293.82H403.41V290.82ZM429.191 290.82H432.191V287.82H429.191V290.82ZM351.75 310.184H325.969V316.184H351.75V310.184ZM322.969 313.184V400H328.969V313.184H322.969ZM325.969 397H296.184V403H325.969V397ZM299.184 400V313.184H293.184V400H299.184ZM296.184 310.184H279.777V316.184H296.184V310.184ZM282.777 313.184V298.828H276.777V313.184H282.777ZM281.093 301.524L297.499 293.516L294.868 288.124L278.461 296.132L281.093 301.524ZM299.184 290.82V282.812H293.184V290.82H299.184ZM299.184 282.812C299.184 273.776 300.711 267.174 303.435 262.691L298.307 259.575C294.781 265.378 293.184 273.229 293.184 282.812H299.184ZM303.429 262.7C306.266 258.069 310.185 254.866 315.275 253.015L313.225 247.376C306.856 249.692 301.857 253.78 298.313 259.566L303.429 262.7ZM315.293 253.008C320.676 251.012 327.143 249.973 334.758 249.973V243.973C326.618 243.973 319.413 245.081 313.207 247.382L315.293 253.008ZM334.758 249.973C340.387 249.973 345.454 250.447 349.974 251.376L351.182 245.499C346.197 244.475 340.717 243.973 334.758 243.973V249.973ZM350.013 251.384C354.666 252.276 358.345 253.276 361.106 254.356L363.292 248.769C360.064 247.506 355.996 246.422 351.143 245.491L350.013 251.384ZM359.366 250.576L351.749 272.451L357.415 274.424L365.032 252.549L359.366 250.576ZM355.482 270.576C353.108 269.829 350.547 269.156 347.803 268.554L346.517 274.415C349.112 274.984 351.499 275.613 353.683 276.299L355.482 270.576ZM347.803 268.554C344.876 267.912 341.594 267.605 337.98 267.605V273.605C341.268 273.605 344.106 273.885 346.517 274.415L347.803 268.554ZM337.98 267.605C333.187 267.605 329.107 269.095 326.423 272.585L331.179 276.243C332.401 274.655 334.44 273.605 337.98 273.605V267.605ZM326.416 272.594C324.037 275.712 322.969 279.591 322.969 283.984H328.969C328.969 280.565 329.789 278.064 331.186 276.234L326.416 272.594ZM322.969 283.984V290.82H328.969V283.984H322.969ZM325.969 293.82H351.75V287.82H325.969V293.82ZM348.75 290.82V313.184H354.75V290.82H348.75ZM429.191 310.184H403.41V316.184H429.191V310.184ZM400.41 313.184V400H406.41V313.184H400.41ZM403.41 397H373.625V403H403.41V397ZM376.625 400V313.184H370.625V400H376.625ZM373.625 310.184H357.219V316.184H373.625V310.184ZM360.219 313.184V298.828H354.219V313.184H360.219ZM358.535 301.524L374.941 293.516L372.309 288.124L355.903 296.132L358.535 301.524ZM376.625 290.82V282.812H370.625V290.82H376.625ZM376.625 282.812C376.625 273.776 378.152 267.174 380.876 262.691L375.749 259.575C372.223 265.378 370.625 273.229 370.625 282.812H376.625ZM380.871 262.7C383.707 258.069 387.627 254.866 392.717 253.015L390.666 247.376C384.298 249.692 379.298 253.78 375.754 259.566L380.871 262.7ZM392.734 253.008C398.117 251.012 404.584 249.973 412.199 249.973V243.973C404.059 243.973 396.854 245.081 390.648 247.382L392.734 253.008ZM412.199 249.973C417.828 249.973 422.896 250.447 427.416 251.376L428.623 245.499C423.638 244.475 418.159 243.973 412.199 243.973V249.973ZM427.454 251.384C432.107 252.276 435.786 253.276 438.547 254.356L440.734 248.769C437.506 247.506 433.437 246.422 428.585 245.491L427.454 251.384ZM436.807 250.576L429.19 272.451L434.857 274.424L442.474 252.549L436.807 250.576ZM432.923 270.576C430.549 269.829 427.988 269.156 425.245 268.554L423.958 274.415C426.553 274.984 428.941 275.613 431.124 276.299L432.923 270.576ZM425.245 268.554C422.318 267.912 419.035 267.605 415.422 267.605V273.605C418.71 273.605 421.547 273.885 423.958 274.415L425.245 268.554ZM415.422 267.605C410.629 267.605 406.549 269.095 403.864 272.585L408.62 276.243C409.842 274.655 411.882 273.605 415.422 273.605V267.605ZM403.857 272.594C401.478 275.712 400.41 279.591 400.41 283.984H406.41C406.41 280.565 407.23 278.064 408.627 276.234L403.857 272.594ZM400.41 283.984V290.82H406.41V283.984H400.41ZM403.41 293.82H429.191V287.82H403.41V293.82ZM426.191 290.82V313.184H432.191V290.82H426.191Z" fill="white"/>
</svg>
