<svg width="244" height="118" viewBox="0 0 244 118" fill="none" xmlns="http://www.w3.org/2000/svg">
<mask id="mask0_606_366" style="mask-type:luminance" maskUnits="userSpaceOnUse" x="0" y="0" width="244" height="118">
<path d="M244 0H0V118H244V0Z" fill="white"/>
</mask>
<g mask="url(#mask0_606_366)">
<path d="M-62.7429 73.75C-62.7429 73.75 -21.5481 39.9889 19.0129 39.9889C59.574 39.9889 80.1714 94.0722 49.7506 96.3667C19.8546 98.6218 33.2727 30.4833 86.8259 35.0722C140.379 39.6611 131.506 76.7 193.932 53.1" stroke="white" stroke-width="4" stroke-dasharray="10 10"/>
<path d="M223.396 45.9036C225.591 43.5411 224.265 39.6871 221.14 39.3496L158.314 32.5626C154.908 32.1947 152.699 36.2622 154.838 38.9601L170.672 58.9262L195.447 51.6928C196.965 51.2496 197.721 53.4458 196.285 54.1272L172.706 65.3136L172.693 90.8329C172.691 94.3458 176.864 95.9836 179.257 93.4085L223.396 45.9036Z" fill="white"/>
</g>
</svg>
